# xmcd
#
# Track frame offsets:
#	150
#	13576
#	29552
#	51790
#	61803
#	79504
#	97430
#	111004
#	126755
#	139956
#	152482
#	167708
#
# Disc length: 2429 seconds
# Revision: 0
# Processed by: cddbd v1.5.2PL0 Copyright (c) Steve Scherf et al.
# Submitted via: dBpowerAMP V12.0
#
DISCID=9c097b0c
DTITLE=Chris Jones and The Night Drivers - Made To Move
DYEAR=2017
DGENRE=Country
TTITLE0=All The Ways I'm Gone
TTITLE1=I'm a Wanderer
TTITLE2=Dark Hollow
TTITLE3=Range Road 53
TTITLE4=Raindrops Fell
TTITLE5=Living Without
TTITLE6=You Always Come Back (To Hurting Me)
TTITLE7=Last Frost
TTITLE8=Silent Goodbye
TTITLE9=Sleeping Through the Storm
TTITLE10=The Old Bell
TTITLE11=What the Heck?!
EXTD=
EXTT0=
EXTT1=
EXTT2=
EXTT3=
EXTT4=
EXTT5=
EXTT6=
EXTT7=
EXTT8=
EXTT9=
EXTT10=
EXTT11=
PLAYORDER=
